<?xml version="1.0" encoding="UTF-8"?>
<svg id="Ebene_1" data-name="Ebene 1" xmlns="http://www.w3.org/2000/svg" viewBox="0 0 840.75 285.59">
  <defs>
    <style>
      .cls-1 {
        fill: #1488ca;
      }

      .cls-2 {
        fill: #e62a34;
      }
    </style>
  </defs>
  <g>
    <path class="cls-1" d="M33.99,272.82c-6.02,0-10.93-4.85-11-10.88-.32-29.48-.51-59.39-.59-88.91-.02-9.44-.03-18.88-.03-18.88-.01-15.16,0-27.42.03-35.18.02-7.17,1.33-31.53,17.46-43.74,13.61-10.31,29.35-5.12,44.57-.11,12.9,4.25,27.52,9.06,44.61,7.21,14.06-1.53,27.83-7.35,40.93-17.28,4.84-3.67,11.74-2.73,15.41,2.11,3.67,4.84,2.73,11.74-2.11,15.41-16.32,12.38-33.76,19.66-51.84,21.63-21.83,2.38-39.6-3.48-53.88-8.18-12.77-4.21-20.2-6.43-24.41-3.25-5.97,4.52-8.72,16.78-8.74,26.25-.02,7.75-.04,19.98-.03,35.11,0,.04,0,9.43.03,18.83.08,29.46.27,59.31.59,88.73.06,6.08-4.81,11.05-10.88,11.12-.04,0-.08,0-.12,0Z"/>
    <path class="cls-1" d="M33.4,184c-2.43,0-4.88-.8-6.91-2.45-4.72-3.82-5.45-10.75-1.63-15.47,12.22-15.1,25.41-23.08,39.21-23.73,9.57-.45,16.55,2.68,22.71,5.44,5.03,2.26,9.38,4.21,15.37,4.32,7.28.11,14.91-2.53,22.61-7.91,4.98-3.48,11.84-2.26,15.32,2.72,3.48,4.98,2.26,11.84-2.72,15.32-11.58,8.09-23.56,12.12-35.6,11.87-10.49-.19-17.97-3.54-23.98-6.24-5.33-2.39-8.54-3.74-12.68-3.54-7.25.34-15.04,5.59-23.14,15.59-2.17,2.69-5.35,4.08-8.56,4.08Z"/>
  </g>
  <g>
    <path class="cls-1" d="M770.73,273.47c-1.17,0-2.13-.09-2.82-.18-14.76-1.35-22.88-13.94-30.05-25.07-6.35-9.85-12.91-20.03-23.52-23.71-2.7-.94-5.57-1.45-8.53-1.53-6.07-.17-10.86-5.22-10.7-11.29.16-5.97,5.05-10.7,10.99-10.7.1,0,.2,0,.3,0,5.21.14,10.31,1.06,15.14,2.74,17.78,6.16,27.22,20.81,34.8,32.57,4.9,7.6,9.52,14.77,13.66,15.09.26.02.52.05.78.09.34,0,1.69-.11,3.61-1.29,9.07-5.57,10.39-39.35,12.06-82.13,1-25.51,2.24-57.26,5.24-94.97.48-6.06,5.79-10.56,11.84-10.09,6.06.48,10.57,5.78,10.09,11.84-2.97,37.26-4.2,68.77-5.18,94.08-2.29,58.79-3.45,88.31-22.53,100.02-6.12,3.75-11.64,4.54-15.18,4.54ZM771.41,251.59s.01,0,.02,0c0,0-.01,0-.02,0ZM771.39,251.58s.01,0,.02,0c0,0-.01,0-.02,0ZM771.37,251.58s0,0,.01,0c0,0,0,0-.01,0Z"/>
    <path class="cls-1" d="M641.5,273.47c-3.54,0-9.06-.78-15.18-4.54-19.08-11.71-20.24-41.23-22.53-100.02-.99-25.31-2.22-56.81-5.18-94.08-.48-6.06,4.04-11.36,10.09-11.84,6.07-.48,11.36,4.04,11.84,10.09,3,37.71,4.24,69.46,5.24,94.97,1.67,42.78,2.99,76.56,12.06,82.13,1.92,1.18,3.27,1.29,3.61,1.29.26-.04.52-.07.78-.09,4.13-.31,8.76-7.49,13.66-15.09,7.58-11.77,17.03-26.41,34.8-32.57,4.83-1.67,9.92-2.59,15.14-2.74,6.02-.17,11.13,4.62,11.29,10.7s-4.62,11.13-10.7,11.29c-2.96.08-5.83.6-8.53,1.53-10.6,3.67-17.17,13.86-23.52,23.71-7.17,11.12-15.29,23.72-30.05,25.07-.69.09-1.64.18-2.82.18ZM640.84,251.58s-.03,0-.04,0c.01,0,.03,0,.04,0ZM640.86,251.58s0,0-.02,0c0,0,.01,0,.02,0Z"/>
  </g>
  <path class="cls-1" d="M333.93,273.48c-14.02,0-23.27-7.03-30.11-12.22-6.4-4.86-9.69-7.17-14.82-6.49-2.92.38-5.23,1.55-10.19,4.16-6.98,3.67-16.53,8.69-34.53,13.83-.29.08-.58.15-.88.21-4.38.87-11.64.22-18.87-4.21-19.08-11.71-20.23-41.21-22.52-99.98-.99-25.3-2.22-56.78-5.18-94.03-.48-6.06,4.04-11.36,10.09-11.84,6.05-.48,11.36,4.04,11.84,10.09,3,37.69,4.24,69.42,5.23,94.92,1.67,42.75,2.99,76.52,12.05,82.08,1.57.96,2.75,1.21,3.32,1.27,15.09-4.4,22.91-8.51,29.22-11.83,5.7-3,10.63-5.58,17.56-6.5,14.32-1.89,23.57,5.14,31,10.79,6.76,5.14,10.91,8.01,17.74,7.72,6.8-.31,13.81-3.86,20.82-10.57,4.39-4.2,11.36-4.04,15.55.36,4.2,4.39,4.04,11.36-.36,15.55-10.97,10.48-22.76,16.08-35.02,16.63-.65.03-1.3.04-1.94.04ZM239.72,251.29h0,0Z"/>
  <g>
    <path id="path24" class="cls-2" d="M530.12,152.03h-32.37v-32.37h-32.37v32.37h-32.37v32.37h32.37v32.37h32.37v-32.37h32.37v-32.37"/>
    <path id="path26" class="cls-1" d="M581.04,152.2c0,2.33-1.45,4.33-3.5,5.15-5-44.66-40.45-80.1-85.1-85.1.81-2.05,2.81-3.5,5.15-3.5h.22c45.9,0,83.24,37.34,83.24,83.24v.22ZM581.04,184.23c0,46.02-37.44,83.46-83.46,83.46-2.34,0-4.33-1.45-5.15-3.5,44.66-5,80.1-40.45,85.1-85.1,2.05.81,3.5,2.81,3.5,5.15ZM481.56,233.68c-36.15,0-65.46-29.31-65.46-65.46s29.31-65.46,65.46-65.46,65.46,29.31,65.46,65.46-29.31,65.46-65.46,65.46ZM465.55,267.69c-46.02,0-83.46-37.44-83.46-83.46,0-2.33,1.45-4.33,3.5-5.15,5,44.66,40.45,80.1,85.1,85.1-.81,2.05-2.81,3.5-5.15,3.5ZM382.09,152.2c0-46.02,37.44-83.46,83.46-83.46,2.33,0,4.33,1.45,5.15,3.5-44.66,5-80.1,40.45-85.1,85.1-2.05-.81-3.5-2.81-3.5-5.15ZM586.76,152.2v-.22c0-49.05-39.91-88.96-88.96-88.96h-.22c-5.34,0-9.82,3.74-10.97,8.74-1.67-.08-3.35-.13-5.04-.13s-3.37.05-5.05.13c-1.15-5-5.63-8.74-10.97-8.74-49.17,0-89.18,40.01-89.18,89.18,0,5.34,3.74,9.82,8.74,10.97-.09,1.67-.13,3.35-.13,5.04s.04,3.37.13,5.04c-5,1.15-8.74,5.63-8.74,10.97,0,49.17,40.01,89.18,89.18,89.18,5.34,0,9.82-3.74,10.97-8.74,1.67.08,3.35.13,5.05.13s3.37-.05,5.04-.13c1.15,5,5.63,8.74,10.97,8.74,49.17,0,89.18-40.01,89.18-89.18,0-5.34-3.74-9.82-8.74-10.97.09-1.67.13-3.35.13-5.04s-.04-3.37-.13-5.04c5-1.15,8.74-5.63,8.74-10.97"/>
    <path id="path28" class="cls-1" d="M421.63,231.12l4.38-7.31-.02-.02-7.28,4.43-1.92-1.91,6.3-10.88,1.89,1.89-4.48,7.22.02.02,7.34-4.37,1.77,1.77-4.44,7.4.02.02,7.32-4.52,1.86,1.85-10.9,6.3-1.88-1.87"/>
    <path id="path30" class="cls-1" d="M435.39,236.18l1.32-4.52-.03-.02-3.87,2.73,2.57,1.82ZM439.57,230l-3.3,12.55-2.27-1.6.81-2.74-3.71-2.62-2.34,1.66-2.2-1.55,10.77-7.27,2.24,1.58"/>
    <path id="path32" class="cls-1" d="M441.53,242.09c0,.32.07.61.21.88.14.27.33.51.59.74.26.22.54.42.85.57.21.11.45.2.71.29.26.08.52.13.79.14.26,0,.51-.05.74-.15.23-.11.42-.29.55-.57.15-.29.17-.58.08-.85-.09-.28-.26-.55-.51-.83-.24-.28-.53-.56-.87-.84-.34-.29-.68-.58-1.02-.89-.35-.31-.69-.63-1-.97-.31-.34-.56-.71-.74-1.09-.19-.39-.28-.8-.3-1.25,0-.44.11-.91.36-1.41.28-.56.65-.98,1.09-1.27.45-.29.93-.47,1.45-.55.52-.08,1.06-.06,1.61.05.55.11,1.07.29,1.56.54.57.29,1.08.63,1.54,1.02.46.39.82.83,1.08,1.32.26.49.4,1.01.41,1.57.02.56-.14,1.15-.45,1.78l-2.31-1.17c.14-.33.21-.64.2-.91,0-.27-.08-.52-.21-.73-.13-.22-.31-.42-.53-.59-.22-.18-.48-.34-.77-.49-.19-.1-.4-.17-.61-.23-.21-.06-.42-.07-.63-.05-.21.02-.4.08-.58.18-.18.1-.33.27-.44.5-.11.21-.15.4-.14.58.01.17.11.37.29.61.18.23.45.51.82.83.36.32.84.74,1.43,1.26.18.14.43.36.73.65.31.29.58.64.81,1.05.24.41.39.88.45,1.4.06.52-.06,1.09-.37,1.69-.25.5-.58.91-.99,1.24-.41.33-.88.55-1.42.67-.54.12-1.13.12-1.78,0-.65-.11-1.34-.36-2.08-.73-.6-.3-1.14-.67-1.63-1.1-.49-.43-.87-.91-1.14-1.44-.27-.53-.41-1.1-.42-1.72,0-.61.16-1.25.51-1.92l2.31,1.17c-.18.36-.27.71-.27,1.03"/>
    <path id="path34" class="cls-1" d="M453.12,247.27c.05.32.17.6.34.84.18.24.41.45.69.64.29.18.6.33.93.44.23.07.48.13.75.18.27.05.54.05.8.02.26-.04.5-.12.71-.26.21-.14.37-.35.46-.65.1-.31.08-.6-.05-.86-.14-.26-.35-.51-.63-.74-.28-.24-.61-.47-.99-.7-.38-.23-.76-.48-1.14-.73-.4-.25-.77-.52-1.13-.81-.36-.29-.66-.61-.9-.97-.24-.35-.4-.75-.48-1.19-.08-.44-.03-.92.14-1.45.19-.59.49-1.07.89-1.42.4-.35.85-.61,1.35-.77.5-.16,1.04-.22,1.6-.19.56.02,1.1.13,1.62.3.6.2,1.16.45,1.67.77.51.32.93.7,1.27,1.14.33.44.55.94.65,1.49.1.55.04,1.16-.18,1.83l-2.46-.81c.09-.35.11-.66.06-.93-.05-.27-.16-.5-.32-.69-.16-.2-.37-.36-.61-.5-.25-.14-.53-.26-.84-.36-.21-.06-.42-.11-.64-.14-.22-.02-.43,0-.63.05-.2.05-.38.14-.55.27-.16.12-.28.31-.36.56-.07.23-.09.42-.05.59.04.17.17.35.38.56.21.2.53.44.94.7.41.27.94.61,1.61,1.03.2.11.48.29.82.53.35.24.67.54.96.92.3.37.51.81.65,1.32.14.51.1,1.08-.11,1.73-.17.53-.44.98-.79,1.37-.35.39-.79.68-1.3.87-.51.2-1.1.29-1.76.28-.66-.01-1.38-.15-2.17-.4-.64-.21-1.23-.49-1.78-.84-.55-.35-1-.77-1.34-1.25-.35-.49-.57-1.03-.67-1.64-.1-.61-.03-1.26.22-1.97l2.46.81c-.13.39-.16.74-.11,1.06"/>
    <path id="path36" class="cls-1" d="M473.74,242.59l-.37,2.22-6.33-1.06-.43,2.57,5.81.97-.34,2.05-5.81-.97-.49,2.94,6.47,1.08-.37,2.22-9.1-1.52,2-11.99,8.97,1.5"/>
    <path id="path38" class="cls-1" d="M481.64,248.34c.61,0,1.07-.12,1.38-.39.31-.27.47-.71.48-1.32,0-.59-.14-1.02-.44-1.29-.3-.27-.76-.41-1.37-.42l-2.93-.05-.06,3.42,2.93.05ZM482.68,242.85c.54,0,1.03.11,1.47.29.43.18.81.43,1.11.74.31.31.54.67.7,1.08.16.41.23.84.22,1.31-.01.72-.17,1.33-.48,1.85-.31.52-.81.91-1.49,1.17v.04c.33.1.6.24.81.43.21.19.38.42.52.67.13.26.23.54.28.85.06.31.09.61.11.92,0,.19.02.42.02.68,0,.26.02.53.05.8.02.27.07.53.12.77.06.24.15.45.27.63l-2.67-.04c-.14-.39-.22-.85-.25-1.38-.03-.53-.07-1.05-.13-1.53-.08-.64-.27-1.1-.56-1.41-.29-.3-.77-.46-1.44-.47l-2.67-.05-.08,4.75-2.67-.05.2-12.15,6.55.11"/>
    <path id="path40" class="cls-1" d="M499.43,253.13l-3.54-7.76h-.03s-.48,8.51-.48,8.51l-2.66.5-5.39-11.36,2.63-.49,3.41,7.78h.03s.56-8.53.56-8.53l2.46-.46,3.58,7.85h.03s.42-8.61.42-8.61l2.58-.48-.99,12.55-2.61.49"/>
    <path id="path42" class="cls-1" d="M511.43,244.64l-2.99-3.65h-.03s.07,4.74.07,4.74l2.95-1.09ZM508.69,237.7l8.49,9.82-2.6.97-1.8-2.22-4.26,1.58.05,2.87-2.52.93.08-13,2.57-.95"/>
    <path id="path44" class="cls-1" d="M521.21,235.04c-.27-.13-.56-.22-.86-.25-.3-.04-.61-.02-.92.05-.31.07-.61.19-.89.36-.51.32-.88.69-1.12,1.11-.23.42-.36.87-.37,1.33-.01.47.06.95.22,1.44.16.49.38.96.67,1.41.27.43.58.82.94,1.17.36.35.75.61,1.17.8.43.19.88.27,1.36.25.48-.02.97-.2,1.48-.51.69-.43,1.1-.98,1.23-1.65.13-.67.02-1.37-.33-2.12l2.2-1.37c.34.68.56,1.36.64,2.03.08.67.04,1.31-.13,1.92-.17.61-.45,1.18-.86,1.7-.41.52-.93.98-1.57,1.38-.79.49-1.59.8-2.39.92-.8.12-1.57.07-2.3-.14-.73-.21-1.42-.57-2.06-1.08-.64-.51-1.19-1.14-1.66-1.89-.48-.77-.81-1.56-.99-2.36-.18-.8-.21-1.59-.08-2.35.13-.76.42-1.48.88-2.15.46-.67,1.08-1.25,1.87-1.75.57-.35,1.16-.61,1.76-.76.61-.15,1.21-.2,1.8-.13.59.06,1.17.25,1.72.55.55.3,1.04.73,1.48,1.28l-2.2,1.37c-.2-.24-.44-.42-.71-.55"/>
    <path id="path46" class="cls-1" d="M525.96,228.13l2.91,3.65,3.85-3.07-2.91-3.65,2.09-1.67,7.57,9.51-2.09,1.67-3.27-4.1-3.85,3.07,3.27,4.1-2.09,1.66-7.57-9.51,2.09-1.67"/>
    <path id="path48" class="cls-1" d="M534.51,224.02l-1.65-1.53,6.76-7.31,1.65,1.53-2.47,2.68,7.28,6.72-1.81,1.96-7.28-6.72-2.47,2.68"/>
    <path id="path50" class="cls-1" d="M404.52,164.71c0-.26,0-.51-.05-.76-.04-.24-.12-.45-.23-.64-.11-.19-.27-.34-.47-.45-.2-.11-.46-.18-.78-.19-.63-.02-1.08.14-1.36.48-.28.34-.43.81-.45,1.39l-.1,2.93,3.36.12.1-2.88ZM399.33,164.48c.02-.51-.08-.94-.3-1.28-.22-.34-.58-.52-1.1-.54-.28-.01-.52.04-.71.14-.19.11-.33.24-.44.42-.11.18-.19.39-.24.63-.05.24-.08.48-.08.74l-.09,2.7,2.86.11.1-2.92ZM394.39,164.16c.02-.58.09-1.37.21-1.86.12-.49.34-.91.58-1.26.25-.35.6-.61.99-.79.39-.18.81-.27,1.38-.24,2.21.14,2.56,2.1,2.56,2.1.24-.74.61-1.29,1.17-1.65.56-.35,1.18-.51,1.95-.49.62.02,1.15.16,1.59.42.44.26.8.59,1.07,1.01.27.42.47.89.58,1.41.12.52.17,1.06.15,1.61l-.21,5.92-12.22-.44.2-5.75"/>
    <path id="path52" class="cls-1" d="M403.57,151.39l-4.7.65v.04s4.09,2.42,4.09,2.42l.61-3.11ZM396.18,150.1l12.88-2.15-.53,2.74-2.85.39-.87,4.49,2.49,1.46-.52,2.65-11.12-6.88.53-2.71"/>
    <path id="path54" class="cls-1" d="M396.96,146.01l.96-2.86,5.49-1.17-3.67-4.23.95-2.84,5.7,6.7,4.45,1.49-.86,2.55-4.51-1.52-8.51,1.88"/>
    <path id="path56" class="cls-1" d="M405.65,124.94l2.02,1.01-2.89,5.77,2.34,1.17,2.66-5.3,1.87.94-2.66,5.3,2.68,1.34,2.96-5.9,2.02,1.01-4.16,8.3-10.93-5.48,4.1-8.18"/>
    <path id="path58" class="cls-1" d="M415.54,120.09c.36-.5.52-.96.48-1.37-.04-.41-.31-.79-.81-1.16-.48-.35-.92-.48-1.32-.38-.4.1-.78.39-1.14.89l-1.72,2.39,2.79,2.01,1.72-2.39ZM411.61,116.08c.32-.45.68-.79,1.08-1.05.4-.25.82-.42,1.25-.49.43-.07.86-.06,1.29.04.43.1.83.29,1.21.57.59.42,1,.91,1.25,1.46.25.55.29,1.19.11,1.9l.03.02c.27-.22.54-.36.82-.42.28-.06.56-.08.85-.04.29.04.58.12.86.25.29.13.56.27.83.44.16.11.36.23.58.37.22.14.45.28.69.42.24.14.48.25.71.34.24.1.46.14.67.14l-1.57,2.18c-.4-.11-.83-.3-1.29-.59-.46-.28-.9-.54-1.34-.77-.57-.3-1.07-.41-1.48-.35-.41.07-.82.37-1.21.92l-1.57,2.18,3.88,2.79-1.57,2.18-9.93-7.14,3.85-5.35"/>
    <path id="path60" class="cls-1" d="M417.92,108.56l9.04,8.24-1.81,1.99-9.04-8.24,1.81-1.99"/>
    <path id="path62" class="cls-1" d="M428.11,111.36c.3.11.6.16.9.13.3-.02.6-.12.91-.28.31-.16.59-.35.86-.58.18-.16.36-.34.54-.56.18-.21.32-.44.42-.69.1-.24.15-.49.14-.75-.01-.25-.12-.5-.33-.73-.22-.25-.48-.38-.77-.39-.29-.01-.61.04-.96.17-.35.12-.72.29-1.11.5-.39.21-.8.42-1.21.62-.42.22-.84.41-1.28.57-.44.16-.87.26-1.3.29-.43.02-.86-.04-1.27-.19-.42-.16-.81-.44-1.19-.86-.41-.47-.68-.97-.78-1.49-.1-.52-.1-1.04.02-1.56.12-.52.34-1.01.65-1.49.31-.48.67-.89,1.08-1.26.48-.42.99-.78,1.52-1.06.54-.28,1.08-.45,1.63-.52.55-.06,1.1,0,1.62.2.53.19,1.03.56,1.5,1.09l-1.95,1.73c-.26-.26-.52-.44-.77-.53-.26-.1-.51-.12-.77-.08-.25.04-.5.13-.75.27-.25.14-.5.32-.74.54-.16.15-.31.3-.44.48-.13.18-.23.37-.28.57-.06.2-.07.41-.04.61.03.2.13.4.3.6.16.18.32.29.49.34.17.05.39.04.68-.05.28-.08.65-.23,1.08-.45.44-.22,1.01-.51,1.71-.87.2-.12.49-.26.88-.44.38-.18.81-.3,1.28-.37.47-.07.97-.04,1.47.11.51.14.99.46,1.44.97.37.42.63.88.79,1.38.16.5.19,1.03.1,1.57-.09.55-.31,1.1-.65,1.66-.35.57-.83,1.13-1.46,1.68-.5.45-1.05.82-1.63,1.11-.58.3-1.18.47-1.77.53-.6.06-1.19-.02-1.76-.25-.58-.22-1.11-.62-1.6-1.19l1.95-1.72c.27.31.56.52.86.64"/>
    <path id="path64" class="cls-1" d="M438.52,96.11c-.27-.13-.56-.21-.87-.25-.31-.04-.62-.01-.93.06-.31.07-.61.2-.89.37-.51.33-.88.7-1.11,1.13-.23.43-.35.88-.36,1.35,0,.47.07.95.24,1.44.17.49.4.96.69,1.41.28.43.6.82.96,1.17.36.34.76.61,1.19.79.43.19.89.26,1.37.23.48-.04.98-.21,1.49-.54.69-.44,1.1-1,1.22-1.67.12-.67,0-1.38-.36-2.13l2.19-1.4c.35.68.58,1.36.67,2.03.09.67.06,1.32-.1,1.94-.16.62-.44,1.19-.85,1.72-.41.53-.93,1-1.56,1.4-.79.51-1.59.82-2.39.95-.81.13-1.58.1-2.32-.11-.74-.2-1.44-.56-2.08-1.06-.65-.5-1.21-1.13-1.69-1.88-.49-.77-.83-1.56-1.03-2.36-.19-.81-.23-1.59-.11-2.36.12-.77.4-1.49.85-2.18.45-.68,1.07-1.28,1.86-1.78.57-.36,1.16-.62,1.77-.78.61-.16,1.21-.21,1.81-.16.6.06,1.18.23,1.73.53.55.3,1.06.72,1.51,1.27l-2.19,1.4c-.2-.24-.44-.42-.72-.55"/>
    <path id="path66" class="cls-1" d="M444.65,89.18l1.86,4.31,4.55-1.96-1.86-4.31,2.47-1.07,4.85,11.23-2.47,1.07-2.09-4.84-4.55,1.96,2.09,4.84-2.47,1.07-4.85-11.23,2.47-1.06"/>
    <path id="path68" class="cls-1" d="M464.6,82.59l.55,2.19-6.26,1.59.64,2.54,5.74-1.45.51,2.02-5.74,1.45.74,2.91,6.39-1.62.55,2.19-9,2.28-3-11.85,8.87-2.25"/>
    <path id="path70" class="cls-1" d="M471.37,90.92c.18.27.39.48.66.63.26.15.56.25.9.31.34.05.68.06,1.03.02.24-.02.49-.07.76-.14.27-.06.52-.17.74-.31.23-.14.41-.31.55-.53.14-.22.19-.48.16-.78-.03-.33-.16-.59-.39-.77-.23-.18-.52-.33-.88-.43-.35-.1-.75-.18-1.2-.24-.44-.06-.89-.13-1.35-.21-.47-.07-.92-.17-1.37-.29-.45-.12-.86-.3-1.22-.52-.37-.23-.67-.53-.92-.9-.25-.37-.4-.84-.46-1.39-.06-.62.02-1.18.24-1.67.22-.49.53-.91.93-1.25.4-.35.87-.62,1.4-.83.53-.2,1.07-.33,1.61-.38.64-.06,1.25-.05,1.85.04.6.08,1.14.26,1.63.54.49.27.89.64,1.2,1.11.32.47.51,1.05.58,1.76l-2.59.26c-.06-.36-.17-.65-.32-.88-.15-.23-.35-.4-.58-.51-.23-.11-.49-.19-.77-.22-.28-.02-.59-.02-.92,0-.22.02-.43.06-.64.13-.21.07-.4.17-.56.3-.17.13-.3.29-.39.47-.1.18-.13.4-.11.66.02.24.09.43.19.57.1.14.3.26.58.36.28.1.66.19,1.14.27.48.08,1.12.18,1.9.3.23.02.56.07.97.15.41.08.84.23,1.26.45.42.22.8.54,1.14.95.33.41.53.95.6,1.64.05.56,0,1.09-.17,1.58-.17.5-.45.94-.84,1.33-.39.39-.89.71-1.51.97-.61.25-1.33.42-2.16.51-.67.06-1.33.05-1.97-.06-.65-.1-1.23-.31-1.75-.61-.52-.3-.95-.72-1.28-1.23-.34-.52-.54-1.15-.6-1.9l2.59-.25c.04.41.15.75.32,1.02"/>
    <path id="path72" class="cls-1" d="M490.39,87.11c.62.06,1.09-.02,1.42-.27.34-.24.53-.67.59-1.28.06-.59-.05-1.04-.33-1.33-.28-.3-.73-.48-1.34-.54l-2.93-.3-.35,3.42,2.93.3ZM491.9,81.71c.54.06,1.03.19,1.45.41.42.22.77.5,1.05.84.28.34.49.72.61,1.14.13.42.16.86.12,1.33-.07.72-.29,1.32-.64,1.81-.35.49-.89.84-1.6,1.04v.04c.32.12.58.29.77.5.2.21.35.45.46.72.11.27.18.56.21.87.03.31.04.62.04.93,0,.19-.02.42-.04.68-.01.26-.02.53-.02.81,0,.28.02.54.06.79.04.25.11.47.22.65l-2.68-.27c-.11-.4-.15-.87-.13-1.41.02-.54.02-1.05,0-1.55-.03-.65-.17-1.13-.44-1.46-.26-.32-.73-.52-1.4-.59l-2.68-.27-.48,4.75-2.67-.27,1.24-12.17,6.56.67"/>
    <path id="path74" class="cls-1" d="M499.47,90.76c-.01.5.05.97.21,1.41.15.44.4.84.74,1.17.34.34.81.59,1.39.75.58.16,1.11.18,1.58.07.47-.11.88-.32,1.24-.63.36-.3.66-.67.9-1.11.24-.44.43-.9.57-1.4.14-.52.22-1.03.24-1.55.02-.52-.05-1-.2-1.45-.15-.45-.4-.84-.74-1.18-.35-.34-.81-.59-1.39-.75-.58-.16-1.11-.18-1.58-.07-.47.11-.88.33-1.24.64-.36.31-.66.69-.91,1.15-.25.45-.44.94-.59,1.45-.14.49-.21.99-.22,1.49h0ZM498.17,86.21c.47-.68,1.03-1.23,1.68-1.66.65-.43,1.38-.7,2.19-.82.81-.12,1.66-.06,2.57.19.91.25,1.68.63,2.31,1.15.63.52,1.11,1.12,1.45,1.82.34.7.54,1.46.6,2.28.06.83-.03,1.68-.28,2.56-.24.86-.59,1.62-1.06,2.29-.47.67-1.03,1.21-1.67,1.63-.65.42-1.37.68-2.17.8-.8.12-1.66.05-2.57-.2-.9-.25-1.67-.63-2.31-1.14-.63-.51-1.12-1.11-1.47-1.8-.34-.69-.55-1.44-.61-2.25-.06-.82.03-1.65.26-2.51.24-.88.6-1.66,1.07-2.34"/>
    <path id="path76" class="cls-1" d="M510.6,88.35l.9-2.07,9.19,3.99-.9,2.07-3.36-1.46-3.97,9.14-2.47-1.07,3.97-9.14-3.36-1.46"/>
    <path id="path78" class="cls-1" d="M530.79,96.26l-1.18,1.93-5.51-3.36-1.36,2.24,5.06,3.09-1.09,1.78-5.06-3.08-1.56,2.56,5.63,3.43-1.18,1.93-7.93-4.83,6.36-10.44,7.81,4.76"/>
    <path id="path80" class="cls-1" d="M529.57,106.92c-.07.32-.07.62,0,.91.07.29.21.58.41.86.2.28.44.53.71.76.18.15.39.3.63.45.24.15.48.25.74.32.26.06.51.07.76.02.25-.05.48-.2.67-.43.21-.25.3-.53.28-.82-.03-.29-.14-.6-.31-.93-.17-.32-.4-.67-.66-1.02-.27-.36-.53-.73-.79-1.11-.28-.38-.53-.77-.76-1.18-.23-.4-.39-.82-.48-1.24-.09-.42-.1-.85,0-1.29.09-.44.31-.87.67-1.3.4-.48.86-.81,1.36-1,.5-.18,1.02-.25,1.55-.21.53.04,1.05.18,1.57.42.52.24.98.53,1.41.88.49.41.92.86,1.28,1.34.36.49.61,1,.76,1.54.14.54.16,1.08.05,1.64-.11.55-.4,1.1-.85,1.64l-2-1.67c.22-.29.35-.58.4-.84.05-.27.04-.53-.04-.77-.08-.24-.21-.48-.38-.7-.18-.22-.39-.44-.65-.65-.17-.14-.35-.26-.54-.36-.2-.11-.4-.17-.61-.2-.21-.02-.41-.01-.61.05-.2.06-.38.19-.55.39-.15.18-.24.36-.27.54-.03.17.03.39.15.66.13.27.33.6.61,1,.28.4.66.92,1.12,1.56.15.18.34.45.57.8.23.35.42.76.56,1.22.14.46.18.95.12,1.47-.06.52-.31,1.05-.75,1.58-.36.43-.78.76-1.25.99-.47.23-.99.34-1.54.33-.55,0-1.13-.14-1.74-.4-.61-.26-1.24-.65-1.87-1.19-.52-.43-.96-.91-1.35-1.45-.38-.53-.64-1.09-.79-1.68-.15-.58-.15-1.18-.02-1.78.13-.6.44-1.19.94-1.76l2,1.67c-.26.32-.43.63-.5.94"/>
    <path id="path82" class="cls-1" d="M548.56,112.64l-3.99,3.13,6.94.63,2.07,2.64-6.75-.78-2.58,8.69-2.08-2.65,2.05-6.29-2.18-.25-3.1,2.43-1.66-2.11,9.62-7.55,1.66,2.11"/>
    <path id="path84" class="cls-1" d="M553.15,129.3c.3.54.64.88,1.03,1.01.39.14.85.06,1.39-.24.52-.29.82-.63.91-1.03.09-.4-.02-.87-.32-1.41l-1.43-2.58-3.01,1.67,1.43,2.58ZM558.46,127.46c.26.48.43.95.49,1.43.06.47.03.92-.09,1.34-.12.42-.31.81-.59,1.15-.27.34-.62.62-1.03.85-.63.35-1.25.52-1.85.51-.61-.01-1.2-.25-1.77-.72h-.03c.08.34.09.65.03.93-.06.28-.17.54-.33.79-.16.24-.36.47-.6.67-.24.2-.49.39-.75.56-.16.1-.36.23-.58.36-.22.14-.45.28-.67.44-.22.16-.43.32-.62.5-.18.17-.32.36-.41.55l-1.3-2.35c.27-.32.63-.62,1.08-.91.45-.29.88-.58,1.27-.88.52-.39.83-.79.95-1.19.12-.4.01-.9-.32-1.49l-1.3-2.35-4.18,2.32-1.3-2.35,10.7-5.92,3.2,5.77"/>
    <path id="path86" class="cls-1" d="M564.89,142.72l-2.12.78-2.22-6.06-2.46.9,2.04,5.56-1.96.72-2.04-5.57-2.81,1.03,2.27,6.19-2.12.78-3.2-8.71,11.48-4.21,3.15,8.59"/>
    <path id="path88" class="cls-1" d="M556.33,157.27c-.97-.75-1.61-1.93-1.93-3.53-.32-1.62-.18-2.96.43-4,.61-1.05,1.73-1.73,3.37-2.05l7.46-1.47.52,2.64-7.46,1.47c-.32.06-.64.16-.94.27-.3.12-.56.29-.76.52-.21.23-.35.51-.44.86-.09.35-.08.79.03,1.33.19.94.53,1.55,1.01,1.82.49.28,1.18.32,2.08.15l7.46-1.47.52,2.64-7.46,1.47c-1.62.32-2.92.11-3.89-.65"/>
    <path id="path90" class="cls-1" d="M566.28,166.36l-.23-6.04,2.26-.08.37,9.62-2.12.08-8.09-6.26.25,6.73-2.26.08-.39-10.3,2.12-.08,8.09,6.26"/>
  </g>
</svg>